<?xml version="1.0" encoding="UTF-8" standalone="no"?>
<!DOCTYPE svg PUBLIC "-//W3C//DTD SVG 1.1//EN"
 "http://www.w3.org/Graphics/SVG/1.1/DTD/svg11.dtd">
<!-- Generated by graphviz version 2.47.0 (20210316.0004)
 -->
<!-- Title: dependencies Pages: 1 -->
<svg width="3451pt" height="363pt"
 viewBox="0.00 0.00 3451.00 363.00" xmlns="http://www.w3.org/2000/svg" xmlns:xlink="http://www.w3.org/1999/xlink">
<g id="graph0" class="graph" transform="scale(1 1) rotate(0) translate(4 359)">
<title>dependencies</title>
<polygon fill="white" stroke="transparent" points="-4,4 -4,-359 3447,-359 3447,4 -4,4"/>
<text text-anchor="start" x="1700.51" y="-42.4" font-family="Times-12" font-weight="bold" font-size="14.00">Legend</text>
<polygon fill="#ffffb3" stroke="transparent" points="1487.5,-10 1487.5,-30 1507.5,-30 1507.5,-10 1487.5,-10"/>
<text text-anchor="start" x="1511.13" y="-15.4" font-family="Times-12" font-size="14.00"> &#160;Declarations</text>
<polygon fill="#8dd3c7" stroke="transparent" points="1600.5,-10 1600.5,-30 1620.5,-30 1620.5,-10 1600.5,-10"/>
<text text-anchor="start" x="1624.23" y="-15.4" font-family="Times-12" font-size="14.00"> &#160;Module</text>
<polygon fill="#80b1d3" stroke="transparent" points="1686.5,-10 1686.5,-30 1706.5,-30 1706.5,-10 1686.5,-10"/>
<text text-anchor="start" x="1710.28" y="-15.4" font-family="Times-12" font-size="14.00"> &#160;Bootstrap</text>
<polygon fill="#fdb462" stroke="transparent" points="1783.5,-10 1783.5,-30 1803.5,-30 1803.5,-10 1783.5,-10"/>
<text text-anchor="start" x="1807.17" y="-15.4" font-family="Times-12" font-size="14.00"> &#160;Providers</text>
<polygon fill="#fb8072" stroke="transparent" points="1879.5,-10 1879.5,-30 1899.5,-30 1899.5,-10 1879.5,-10"/>
<text text-anchor="start" x="1903.23" y="-15.4" font-family="Times-12" font-size="14.00"> &#160;Exports</text>
<g id="clust1" class="cluster">
<title>cluster_AppModule</title>
<polygon fill="none" stroke="black" stroke-dasharray="1,5" points="1168,-146 1168,-347 2155,-347 2155,-146 1168,-146"/>
</g>
<g id="clust3" class="cluster">
<title>cluster_AppModule_imports</title>
<polygon fill="none" stroke="black" points="1314,-154 1314,-282 2147,-282 2147,-154 1314,-154"/>
</g>
<g id="clust6" class="cluster">
<title>cluster_AppModule_providers</title>
<polygon fill="none" stroke="black" points="1176,-230 1176,-282 1306,-282 1306,-230 1176,-230"/>
</g>
<g id="clust7" class="cluster">
<title>cluster_AuthModule</title>
<polygon fill="none" stroke="black" stroke-dasharray="1,5" points="8,-70 8,-138 1290,-138 1290,-70 8,-70"/>
</g>
<g id="clust10" class="cluster">
<title>cluster_AuthModule_exports</title>
<polygon fill="none" stroke="black" points="1044,-78 1044,-130 1282,-130 1282,-78 1044,-78"/>
</g>
<g id="clust12" class="cluster">
<title>cluster_AuthModule_providers</title>
<polygon fill="none" stroke="black" points="16,-78 16,-130 1036,-130 1036,-78 16,-78"/>
</g>
<g id="clust13" class="cluster">
<title>cluster_MailModule</title>
<polygon fill="none" stroke="black" stroke-dasharray="1,5" points="2163,-222 2163,-290 2423,-290 2423,-222 2163,-222"/>
</g>
<g id="clust16" class="cluster">
<title>cluster_MailModule_exports</title>
<polygon fill="none" stroke="black" points="2311,-230 2311,-282 2415,-282 2415,-230 2311,-230"/>
</g>
<g id="clust18" class="cluster">
<title>cluster_MailModule_providers</title>
<polygon fill="none" stroke="black" points="2171,-230 2171,-282 2303,-282 2303,-230 2171,-230"/>
</g>
<g id="clust19" class="cluster">
<title>cluster_MetaOptionsModule</title>
<polygon fill="none" stroke="black" stroke-dasharray="1,5" points="2431,-222 2431,-290 2801,-290 2801,-222 2431,-222"/>
</g>
<g id="clust22" class="cluster">
<title>cluster_MetaOptionsModule_exports</title>
<polygon fill="none" stroke="black" points="2643,-230 2643,-282 2793,-282 2793,-230 2643,-230"/>
</g>
<g id="clust24" class="cluster">
<title>cluster_MetaOptionsModule_providers</title>
<polygon fill="none" stroke="black" points="2439,-230 2439,-282 2635,-282 2635,-230 2439,-230"/>
</g>
<g id="clust25" class="cluster">
<title>cluster_PaginationModule</title>
<polygon fill="none" stroke="black" stroke-dasharray="1,5" points="2809,-222 2809,-290 3165,-290 3165,-222 2809,-222"/>
</g>
<g id="clust28" class="cluster">
<title>cluster_PaginationModule_exports</title>
<polygon fill="none" stroke="black" points="3013,-230 3013,-282 3157,-282 3157,-230 3013,-230"/>
</g>
<g id="clust30" class="cluster">
<title>cluster_PaginationModule_providers</title>
<polygon fill="none" stroke="black" points="2817,-230 2817,-282 3005,-282 3005,-230 2817,-230"/>
</g>
<g id="clust31" class="cluster">
<title>cluster_PostsModule</title>
<polygon fill="none" stroke="black" stroke-dasharray="1,5" points="817,-146 817,-214 1160,-214 1160,-146 817,-146"/>
</g>
<g id="clust36" class="cluster">
<title>cluster_PostsModule_providers</title>
<polygon fill="none" stroke="black" points="825,-154 825,-206 1152,-206 1152,-154 825,-154"/>
</g>
<g id="clust37" class="cluster">
<title>cluster_TagsModule</title>
<polygon fill="none" stroke="black" stroke-dasharray="1,5" points="3173,-222 3173,-290 3435,-290 3435,-222 3173,-222"/>
</g>
<g id="clust40" class="cluster">
<title>cluster_TagsModule_exports</title>
<polygon fill="none" stroke="black" points="3323,-230 3323,-282 3427,-282 3427,-230 3323,-230"/>
</g>
<g id="clust42" class="cluster">
<title>cluster_TagsModule_providers</title>
<polygon fill="none" stroke="black" points="3181,-230 3181,-282 3315,-282 3315,-230 3181,-230"/>
</g>
<g id="clust43" class="cluster">
<title>cluster_UploadsModule</title>
<polygon fill="none" stroke="black" stroke-dasharray="1,5" points="2819,-70 2819,-138 3215,-138 3215,-70 2819,-70"/>
</g>
<g id="clust48" class="cluster">
<title>cluster_UploadsModule_providers</title>
<polygon fill="none" stroke="black" points="2827,-78 2827,-130 3207,-130 3207,-78 2827,-78"/>
</g>
<g id="clust49" class="cluster">
<title>cluster_UsersModule</title>
<polygon fill="none" stroke="black" stroke-dasharray="1,5" points="1298,-70 1298,-138 2811,-138 2811,-70 1298,-70"/>
</g>
<g id="clust52" class="cluster">
<title>cluster_UsersModule_exports</title>
<polygon fill="none" stroke="black" points="2693,-78 2693,-130 2803,-130 2803,-78 2693,-78"/>
</g>
<g id="clust54" class="cluster">
<title>cluster_UsersModule_providers</title>
<polygon fill="none" stroke="black" points="1306,-78 1306,-130 2685,-130 2685,-78 1306,-78"/>
</g>
<!-- AuthModule -->
<g id="node1" class="node">
<title>AuthModule</title>
<polygon fill="#8dd3c7" stroke="black" points="1409.55,-198 1406.55,-202 1385.55,-202 1382.55,-198 1322.45,-198 1322.45,-162 1409.55,-162 1409.55,-198"/>
<text text-anchor="middle" x="1366" y="-175.8" font-family="Times,serif" font-size="14.00">AuthModule</text>
</g>
<!-- AppModule -->
<g id="node9" class="node">
<title>AppModule</title>
<polygon fill="#8dd3c7" stroke="black" points="1631.66,-339 1628.66,-343 1607.66,-343 1604.66,-339 1548.34,-339 1548.34,-303 1631.66,-303 1631.66,-339"/>
<text text-anchor="middle" x="1590" y="-316.8" font-family="Times,serif" font-size="14.00">AppModule</text>
</g>
<!-- AuthModule&#45;&gt;AppModule -->
<g id="edge1" class="edge">
<title>AuthModule&#45;&gt;AppModule</title>
<path fill="none" stroke="black" d="M1366,-198.14C1366,-236.23 1366,-321 1366,-321 1366,-321 1538.13,-321 1538.13,-321"/>
<polygon fill="black" stroke="black" points="1538.13,-324.5 1548.13,-321 1538.13,-317.5 1538.13,-324.5"/>
</g>
<!-- AuthService  -->
<g id="node11" class="node">
<title>AuthService </title>
<polygon fill="#fb8072" stroke="black" points="1273.98,-122 1184.02,-122 1184.02,-86 1273.98,-86 1273.98,-122"/>
<text text-anchor="middle" x="1229" y="-99.8" font-family="Times,serif" font-size="14.00">AuthService </text>
</g>
<!-- AuthModule&#45;&gt;AuthService  -->
<g id="edge10" class="edge">
<title>AuthModule&#45;&gt;AuthService </title>
<path fill="none" stroke="black" stroke-dasharray="5,2" d="M1322.29,-171C1282.22,-171 1229.06,-171 1229.06,-171 1229.06,-171 1229.06,-132.31 1229.06,-132.31"/>
<polygon fill="black" stroke="black" points="1232.56,-132.31 1229.06,-122.31 1225.56,-132.31 1232.56,-132.31"/>
</g>
<!-- HashingProvider  -->
<g id="node12" class="node">
<title>HashingProvider </title>
<polygon fill="#fb8072" stroke="black" points="1166.37,-122 1051.63,-122 1051.63,-86 1166.37,-86 1166.37,-122"/>
<text text-anchor="middle" x="1109" y="-99.8" font-family="Times,serif" font-size="14.00">HashingProvider </text>
</g>
<!-- AuthModule&#45;&gt;HashingProvider  -->
<g id="edge11" class="edge">
<title>AuthModule&#45;&gt;HashingProvider </title>
<path fill="none" stroke="black" stroke-dasharray="5,2" d="M1322.34,-180C1260.62,-180 1155.28,-180 1155.28,-180 1155.28,-180 1155.28,-132.01 1155.28,-132.01"/>
<polygon fill="black" stroke="black" points="1158.78,-132.01 1155.28,-122.01 1151.78,-132.01 1158.78,-132.01"/>
</g>
<!-- MailModule -->
<g id="node2" class="node">
<title>MailModule</title>
<polygon fill="#8dd3c7" stroke="black" points="1746.99,-198 1743.99,-202 1722.99,-202 1719.99,-198 1661.01,-198 1661.01,-162 1746.99,-162 1746.99,-198"/>
<text text-anchor="middle" x="1704" y="-175.8" font-family="Times,serif" font-size="14.00">MailModule</text>
</g>
<!-- MailModule&#45;&gt;AppModule -->
<g id="edge2" class="edge">
<title>MailModule&#45;&gt;AppModule</title>
<path fill="none" stroke="black" d="M1704,-198.21C1704,-234.21 1704,-311 1704,-311 1704,-311 1641.8,-311 1641.8,-311"/>
<polygon fill="black" stroke="black" points="1641.8,-307.5 1631.8,-311 1641.8,-314.5 1641.8,-307.5"/>
</g>
<!-- MailService  -->
<g id="node18" class="node">
<title>MailService </title>
<polygon fill="#fb8072" stroke="black" points="2406.92,-274 2319.08,-274 2319.08,-238 2406.92,-238 2406.92,-274"/>
<text text-anchor="middle" x="2363" y="-251.8" font-family="Times,serif" font-size="14.00">MailService </text>
</g>
<!-- MailModule&#45;&gt;MailService  -->
<g id="edge17" class="edge">
<title>MailModule&#45;&gt;MailService </title>
<path fill="none" stroke="black" stroke-dasharray="5,2" d="M1682.5,-198.04C1682.5,-211.29 1682.5,-227 1682.5,-227 1682.5,-227 2363,-227 2363,-227 2363,-227 2363,-228.08 2363,-228.08"/>
<polygon fill="black" stroke="black" points="2359.5,-227.8 2363,-237.8 2366.5,-227.8 2359.5,-227.8"/>
</g>
<!-- MetaOptionsModule -->
<g id="node3" class="node">
<title>MetaOptionsModule</title>
<polygon fill="#8dd3c7" stroke="black" points="1897.15,-198 1894.15,-202 1873.15,-202 1870.15,-198 1764.85,-198 1764.85,-162 1897.15,-162 1897.15,-198"/>
<text text-anchor="middle" x="1831" y="-175.8" font-family="Times,serif" font-size="14.00">MetaOptionsModule</text>
</g>
<!-- MetaOptionsModule&#45;&gt;AppModule -->
<g id="edge3" class="edge">
<title>MetaOptionsModule&#45;&gt;AppModule</title>
<path fill="none" stroke="black" d="M1864.16,-198.04C1864.16,-235.45 1864.16,-318 1864.16,-318 1864.16,-318 1641.94,-318 1641.94,-318"/>
<polygon fill="black" stroke="black" points="1641.94,-314.5 1631.94,-318 1641.94,-321.5 1641.94,-314.5"/>
</g>
<!-- MetaOptionsService  -->
<g id="node20" class="node">
<title>MetaOptionsService </title>
<polygon fill="#fb8072" stroke="black" points="2785.08,-274 2650.92,-274 2650.92,-238 2785.08,-238 2785.08,-274"/>
<text text-anchor="middle" x="2718" y="-251.8" font-family="Times,serif" font-size="14.00">MetaOptionsService </text>
</g>
<!-- MetaOptionsModule&#45;&gt;MetaOptionsService  -->
<g id="edge19" class="edge">
<title>MetaOptionsModule&#45;&gt;MetaOptionsService </title>
<path fill="none" stroke="black" stroke-dasharray="5,2" d="M1797.84,-198.42C1797.84,-207.28 1797.84,-216 1797.84,-216 1797.84,-216 2663.93,-216 2663.93,-216 2663.93,-216 2663.93,-227.87 2663.93,-227.87"/>
<polygon fill="black" stroke="black" points="2660.43,-227.87 2663.93,-237.87 2667.43,-227.87 2660.43,-227.87"/>
</g>
<!-- PaginationModule -->
<g id="node4" class="node">
<title>PaginationModule</title>
<polygon fill="#8dd3c7" stroke="black" points="2034.93,-198 2031.93,-202 2010.93,-202 2007.93,-198 1915.07,-198 1915.07,-162 2034.93,-162 2034.93,-198"/>
<text text-anchor="middle" x="1975" y="-175.8" font-family="Times,serif" font-size="14.00">PaginationModule</text>
</g>
<!-- PostsModule -->
<g id="node5" class="node">
<title>PostsModule</title>
<polygon fill="#8dd3c7" stroke="black" points="1519.61,-274 1516.61,-278 1495.61,-278 1492.61,-274 1430.39,-274 1430.39,-238 1519.61,-238 1519.61,-274"/>
<text text-anchor="middle" x="1475" y="-251.8" font-family="Times,serif" font-size="14.00">PostsModule</text>
</g>
<!-- PaginationModule&#45;&gt;PostsModule -->
<g id="edge23" class="edge">
<title>PaginationModule&#45;&gt;PostsModule</title>
<path fill="none" stroke="black" d="M1986.94,-198.04C1986.94,-219.66 1986.94,-253 1986.94,-253 1986.94,-253 1529.98,-253 1529.98,-253"/>
<polygon fill="black" stroke="black" points="1529.98,-249.5 1519.98,-253 1529.98,-256.5 1529.98,-249.5"/>
</g>
<!-- PaginationModule&#45;&gt;AppModule -->
<g id="edge4" class="edge">
<title>PaginationModule&#45;&gt;AppModule</title>
<path fill="none" stroke="black" d="M2010.83,-198.07C2010.83,-236.94 2010.83,-325 2010.83,-325 2010.83,-325 1641.89,-325 1641.89,-325"/>
<polygon fill="black" stroke="black" points="1641.89,-321.5 1631.89,-325 1641.89,-328.5 1641.89,-321.5"/>
</g>
<!-- PaginationProvider  -->
<g id="node22" class="node">
<title>PaginationProvider </title>
<polygon fill="#fb8072" stroke="black" points="3148.59,-274 3021.41,-274 3021.41,-238 3148.59,-238 3148.59,-274"/>
<text text-anchor="middle" x="3085" y="-251.8" font-family="Times,serif" font-size="14.00">PaginationProvider </text>
</g>
<!-- PaginationModule&#45;&gt;PaginationProvider  -->
<g id="edge21" class="edge">
<title>PaginationModule&#45;&gt;PaginationProvider </title>
<path fill="none" stroke="black" stroke-dasharray="5,2" d="M1939.17,-198.19C1939.17,-201.54 1939.17,-204 1939.17,-204 1939.17,-204 3085,-204 3085,-204 3085,-204 3085,-227.81 3085,-227.81"/>
<polygon fill="black" stroke="black" points="3081.5,-227.81 3085,-237.81 3088.5,-227.81 3081.5,-227.81"/>
</g>
<!-- PostsModule&#45;&gt;AppModule -->
<g id="edge5" class="edge">
<title>PostsModule&#45;&gt;AppModule</title>
<path fill="none" stroke="black" d="M1519.62,-267C1546.69,-267 1576.06,-267 1576.06,-267 1576.06,-267 1576.06,-292.72 1576.06,-292.72"/>
<polygon fill="black" stroke="black" points="1572.56,-292.72 1576.06,-302.72 1579.56,-292.72 1572.56,-292.72"/>
</g>
<!-- TagsModule -->
<g id="node6" class="node">
<title>TagsModule</title>
<polygon fill="#8dd3c7" stroke="black" points="2139.26,-198 2136.26,-202 2115.26,-202 2112.26,-198 2052.74,-198 2052.74,-162 2139.26,-162 2139.26,-198"/>
<text text-anchor="middle" x="2096" y="-175.8" font-family="Times,serif" font-size="14.00">TagsModule</text>
</g>
<!-- TagsModule&#45;&gt;PostsModule -->
<g id="edge24" class="edge">
<title>TagsModule&#45;&gt;PostsModule</title>
<path fill="none" stroke="black" d="M2081.54,-198.15C2081.54,-221.76 2081.54,-260 2081.54,-260 2081.54,-260 1529.6,-260 1529.6,-260"/>
<polygon fill="black" stroke="black" points="1529.6,-256.5 1519.6,-260 1529.6,-263.5 1529.6,-256.5"/>
</g>
<!-- TagsModule&#45;&gt;AppModule -->
<g id="edge6" class="edge">
<title>TagsModule&#45;&gt;AppModule</title>
<path fill="none" stroke="black" d="M2110.46,-198.03C2110.46,-238.3 2110.46,-332 2110.46,-332 2110.46,-332 1641.71,-332 1641.71,-332"/>
<polygon fill="black" stroke="black" points="1641.71,-328.5 1631.71,-332 1641.71,-335.5 1641.71,-328.5"/>
</g>
<!-- TagsService  -->
<g id="node26" class="node">
<title>TagsService </title>
<polygon fill="#fb8072" stroke="black" points="3419.19,-274 3330.81,-274 3330.81,-238 3419.19,-238 3419.19,-274"/>
<text text-anchor="middle" x="3375" y="-251.8" font-family="Times,serif" font-size="14.00">TagsService </text>
</g>
<!-- TagsModule&#45;&gt;TagsService  -->
<g id="edge28" class="edge">
<title>TagsModule&#45;&gt;TagsService </title>
<path fill="none" stroke="black" stroke-dasharray="5,2" d="M2139.29,-174C2362.7,-174 3375,-174 3375,-174 3375,-174 3375,-227.8 3375,-227.8"/>
<polygon fill="black" stroke="black" points="3371.5,-227.8 3375,-237.8 3378.5,-227.8 3371.5,-227.8"/>
</g>
<!-- UploadsModule -->
<g id="node7" class="node">
<title>UploadsModule</title>
<polygon fill="#8dd3c7" stroke="black" points="1643.21,-198 1640.21,-202 1619.21,-202 1616.21,-198 1536.79,-198 1536.79,-162 1643.21,-162 1643.21,-198"/>
<text text-anchor="middle" x="1590" y="-175.8" font-family="Times,serif" font-size="14.00">UploadsModule</text>
</g>
<!-- UploadsModule&#45;&gt;AppModule -->
<g id="edge7" class="edge">
<title>UploadsModule&#45;&gt;AppModule</title>
<path fill="none" stroke="black" d="M1603.94,-198.14C1603.94,-198.14 1603.94,-292.93 1603.94,-292.93"/>
<polygon fill="black" stroke="black" points="1600.44,-292.92 1603.94,-302.93 1607.44,-292.93 1600.44,-292.92"/>
</g>
<!-- UsersModule -->
<g id="node8" class="node">
<title>UsersModule</title>
<polygon fill="#8dd3c7" stroke="black" points="1518.92,-198 1515.92,-202 1494.92,-202 1491.92,-198 1427.08,-198 1427.08,-162 1518.92,-162 1518.92,-198"/>
<text text-anchor="middle" x="1473" y="-175.8" font-family="Times,serif" font-size="14.00">UsersModule</text>
</g>
<!-- UsersModule&#45;&gt;PostsModule -->
<g id="edge25" class="edge">
<title>UsersModule&#45;&gt;PostsModule</title>
<path fill="none" stroke="black" d="M1489.29,-198.01C1489.29,-198.01 1489.29,-227.85 1489.29,-227.85"/>
<polygon fill="black" stroke="black" points="1485.79,-227.85 1489.29,-237.85 1492.79,-227.85 1485.79,-227.85"/>
</g>
<!-- UsersModule&#45;&gt;AppModule -->
<g id="edge8" class="edge">
<title>UsersModule&#45;&gt;AppModule</title>
<path fill="none" stroke="black" d="M1518.86,-180C1524.44,-180 1528.23,-180 1528.23,-180 1528.23,-180 1528.23,-312 1528.23,-312 1528.23,-312 1538.11,-312 1538.11,-312"/>
<polygon fill="black" stroke="black" points="1538.11,-315.5 1548.11,-312 1538.11,-308.5 1538.11,-315.5"/>
</g>
<!-- UsersService  -->
<g id="node30" class="node">
<title>UsersService </title>
<polygon fill="#fb8072" stroke="black" points="2794.85,-122 2701.15,-122 2701.15,-86 2794.85,-86 2794.85,-122"/>
<text text-anchor="middle" x="2748" y="-99.8" font-family="Times,serif" font-size="14.00">UsersService </text>
</g>
<!-- UsersModule&#45;&gt;UsersService  -->
<g id="edge32" class="edge">
<title>UsersModule&#45;&gt;UsersService </title>
<path fill="none" stroke="black" stroke-dasharray="5,2" d="M1473.92,-161.84C1473.92,-156.96 1473.92,-153 1473.92,-153 1473.92,-153 2743.31,-153 2743.31,-153 2743.31,-153 2743.31,-132.25 2743.31,-132.25"/>
<polygon fill="black" stroke="black" points="2746.81,-132.25 2743.31,-122.25 2739.81,-132.25 2746.81,-132.25"/>
</g>
<!-- AppService -->
<g id="node10" class="node">
<title>AppService</title>
<ellipse fill="#fdb462" stroke="black" cx="1241" cy="-256" rx="56.74" ry="18"/>
<text text-anchor="middle" x="1241" y="-251.8" font-family="Times,serif" font-size="14.00">AppService</text>
</g>
<!-- AppService&#45;&gt;AppModule -->
<g id="edge9" class="edge">
<title>AppService&#45;&gt;AppModule</title>
<path fill="none" stroke="black" d="M1241,-274.29C1241,-296.21 1241,-330 1241,-330 1241,-330 1538.25,-330 1538.25,-330"/>
<polygon fill="black" stroke="black" points="1538.25,-333.5 1548.25,-330 1538.25,-326.5 1538.25,-333.5"/>
</g>
<!-- AuthService -->
<g id="node13" class="node">
<title>AuthService</title>
<ellipse fill="#fdb462" stroke="black" cx="317" cy="-104" rx="59.11" ry="18"/>
<text text-anchor="middle" x="317" y="-99.8" font-family="Times,serif" font-size="14.00">AuthService</text>
</g>
<!-- AuthService&#45;&gt;AuthModule -->
<g id="edge12" class="edge">
<title>AuthService&#45;&gt;AuthModule</title>
<path fill="none" stroke="black" d="M317,-122.03C317,-128.85 317,-135 317,-135 317,-135 1351.41,-135 1351.41,-135 1351.41,-135 1351.41,-151.96 1351.41,-151.96"/>
<polygon fill="black" stroke="black" points="1347.91,-151.96 1351.41,-161.96 1354.91,-151.96 1347.91,-151.96"/>
</g>
<!-- GenerateTokensProvider -->
<g id="node14" class="node">
<title>GenerateTokensProvider</title>
<ellipse fill="#fdb462" stroke="black" cx="132" cy="-104" rx="107.63" ry="18"/>
<text text-anchor="middle" x="132" y="-99.8" font-family="Times,serif" font-size="14.00">GenerateTokensProvider</text>
</g>
<!-- GenerateTokensProvider&#45;&gt;AuthModule -->
<g id="edge13" class="edge">
<title>GenerateTokensProvider&#45;&gt;AuthModule</title>
<path fill="none" stroke="black" d="M132,-122.19C132,-130.28 132,-138 132,-138 132,-138 1336.82,-138 1336.82,-138 1336.82,-138 1336.82,-151.94 1336.82,-151.94"/>
<polygon fill="black" stroke="black" points="1333.32,-151.94 1336.82,-161.94 1340.32,-151.94 1333.32,-151.94"/>
</g>
<!-- GoogleAuthenticationService -->
<g id="node15" class="node">
<title>GoogleAuthenticationService</title>
<ellipse fill="#fdb462" stroke="black" cx="902" cy="-104" rx="125.62" ry="18"/>
<text text-anchor="middle" x="902" y="-99.8" font-family="Times,serif" font-size="14.00">GoogleAuthenticationService</text>
</g>
<!-- GoogleAuthenticationService&#45;&gt;AuthModule -->
<g id="edge14" class="edge">
<title>GoogleAuthenticationService&#45;&gt;AuthModule</title>
<path fill="none" stroke="black" d="M1014.37,-112.19C1014.37,-118.45 1014.37,-126 1014.37,-126 1014.37,-126 1395.18,-126 1395.18,-126 1395.18,-126 1395.18,-151.72 1395.18,-151.72"/>
<polygon fill="black" stroke="black" points="1391.68,-151.72 1395.18,-161.72 1398.68,-151.72 1391.68,-151.72"/>
</g>
<!-- RefreshTokensProvider -->
<g id="node16" class="node">
<title>RefreshTokensProvider</title>
<ellipse fill="#fdb462" stroke="black" cx="655" cy="-104" rx="102.99" ry="18"/>
<text text-anchor="middle" x="655" y="-99.8" font-family="Times,serif" font-size="14.00">RefreshTokensProvider</text>
</g>
<!-- RefreshTokensProvider&#45;&gt;AuthModule -->
<g id="edge15" class="edge">
<title>RefreshTokensProvider&#45;&gt;AuthModule</title>
<path fill="none" stroke="black" d="M655,-122.17C655,-126.05 655,-129 655,-129 655,-129 1380.59,-129 1380.59,-129 1380.59,-129 1380.59,-151.88 1380.59,-151.88"/>
<polygon fill="black" stroke="black" points="1377.09,-151.88 1380.59,-161.88 1384.09,-151.88 1377.09,-151.88"/>
</g>
<!-- SignInProvider -->
<g id="node17" class="node">
<title>SignInProvider</title>
<ellipse fill="#fdb462" stroke="black" cx="464" cy="-104" rx="70.08" ry="18"/>
<text text-anchor="middle" x="464" y="-99.8" font-family="Times,serif" font-size="14.00">SignInProvider</text>
</g>
<!-- SignInProvider&#45;&gt;AuthModule -->
<g id="edge16" class="edge">
<title>SignInProvider&#45;&gt;AuthModule</title>
<path fill="none" stroke="black" d="M464,-122.21C464,-127.55 464,-132 464,-132 464,-132 1366,-132 1366,-132 1366,-132 1366,-151.85 1366,-151.85"/>
<polygon fill="black" stroke="black" points="1362.5,-151.85 1366,-161.85 1369.5,-151.85 1362.5,-151.85"/>
</g>
<!-- MailService -->
<g id="node19" class="node">
<title>MailService</title>
<ellipse fill="#fdb462" stroke="black" cx="2237" cy="-256" rx="58.46" ry="18"/>
<text text-anchor="middle" x="2237" y="-251.8" font-family="Times,serif" font-size="14.00">MailService</text>
</g>
<!-- MailService&#45;&gt;MailModule -->
<g id="edge18" class="edge">
<title>MailService&#45;&gt;MailModule</title>
<path fill="none" stroke="black" d="M2188.42,-246C2060.74,-246 1725.5,-246 1725.5,-246 1725.5,-246 1725.5,-208.03 1725.5,-208.03"/>
<polygon fill="black" stroke="black" points="1729,-208.03 1725.5,-198.03 1722,-208.03 1729,-208.03"/>
</g>
<!-- MetaOptionsService -->
<g id="node21" class="node">
<title>MetaOptionsService</title>
<ellipse fill="#fdb462" stroke="black" cx="2537" cy="-256" rx="90.33" ry="18"/>
<text text-anchor="middle" x="2537" y="-251.8" font-family="Times,serif" font-size="14.00">MetaOptionsService</text>
</g>
<!-- MetaOptionsService&#45;&gt;MetaOptionsModule -->
<g id="edge20" class="edge">
<title>MetaOptionsService&#45;&gt;MetaOptionsModule</title>
<path fill="none" stroke="black" d="M2567.14,-238.91C2567.14,-230.03 2567.14,-221 2567.14,-221 2567.14,-221 1831,-221 1831,-221 1831,-221 1831,-208.1 1831,-208.1"/>
<polygon fill="black" stroke="black" points="1834.5,-208.1 1831,-198.1 1827.5,-208.1 1834.5,-208.1"/>
</g>
<!-- PaginationProvider -->
<g id="node23" class="node">
<title>PaginationProvider</title>
<ellipse fill="#fdb462" stroke="black" cx="2911" cy="-256" rx="85.69" ry="18"/>
<text text-anchor="middle" x="2911" y="-251.8" font-family="Times,serif" font-size="14.00">PaginationProvider</text>
</g>
<!-- PaginationProvider&#45;&gt;PaginationModule -->
<g id="edge22" class="edge">
<title>PaginationProvider&#45;&gt;PaginationModule</title>
<path fill="none" stroke="black" d="M2830.11,-249.99C2830.11,-237.52 2830.11,-210 2830.11,-210 2830.11,-210 1963.06,-210 1963.06,-210 1963.06,-210 1963.06,-208.14 1963.06,-208.14"/>
<polygon fill="black" stroke="black" points="1966.56,-208.14 1963.06,-198.14 1959.56,-208.14 1966.56,-208.14"/>
</g>
<!-- CreatePostProvider -->
<g id="node24" class="node">
<title>CreatePostProvider</title>
<ellipse fill="#fdb462" stroke="black" cx="919" cy="-180" rx="86.25" ry="18"/>
<text text-anchor="middle" x="919" y="-175.8" font-family="Times,serif" font-size="14.00">CreatePostProvider</text>
</g>
<!-- CreatePostProvider&#45;&gt;PostsModule -->
<g id="edge26" class="edge">
<title>CreatePostProvider&#45;&gt;PostsModule</title>
<path fill="none" stroke="black" d="M919,-198.24C919,-213.57 919,-233 919,-233 919,-233 1459.87,-233 1459.87,-233 1459.87,-233 1459.87,-233.49 1459.87,-233.49"/>
<polygon fill="black" stroke="black" points="1456.37,-227.88 1459.87,-237.88 1463.37,-227.88 1456.37,-227.88"/>
</g>
<!-- PostsService -->
<g id="node25" class="node">
<title>PostsService</title>
<ellipse fill="#fdb462" stroke="black" cx="1084" cy="-180" rx="60.27" ry="18"/>
<text text-anchor="middle" x="1084" y="-175.8" font-family="Times,serif" font-size="14.00">PostsService</text>
</g>
<!-- PostsService&#45;&gt;PostsModule -->
<g id="edge27" class="edge">
<title>PostsService&#45;&gt;PostsModule</title>
<path fill="none" stroke="black" d="M1136.57,-189C1202.16,-189 1305.82,-189 1305.82,-189 1305.82,-189 1305.82,-256 1305.82,-256 1305.82,-256 1420.11,-256 1420.11,-256"/>
<polygon fill="black" stroke="black" points="1420.11,-259.5 1430.11,-256 1420.11,-252.5 1420.11,-259.5"/>
</g>
<!-- TagsService -->
<g id="node27" class="node">
<title>TagsService</title>
<ellipse fill="#fdb462" stroke="black" cx="3248" cy="-256" rx="58.53" ry="18"/>
<text text-anchor="middle" x="3248" y="-251.8" font-family="Times,serif" font-size="14.00">TagsService</text>
</g>
<!-- TagsService&#45;&gt;TagsModule -->
<g id="edge29" class="edge">
<title>TagsService&#45;&gt;TagsModule</title>
<path fill="none" stroke="black" d="M3194.19,-248.51C3194.19,-230.45 3194.19,-186 3194.19,-186 3194.19,-186 2149.39,-186 2149.39,-186"/>
<polygon fill="black" stroke="black" points="2149.39,-182.5 2139.39,-186 2149.39,-189.5 2149.39,-182.5"/>
</g>
<!-- UploadToAwsProvider -->
<g id="node28" class="node">
<title>UploadToAwsProvider</title>
<ellipse fill="#fdb462" stroke="black" cx="3098" cy="-104" rx="101.29" ry="18"/>
<text text-anchor="middle" x="3098" y="-99.8" font-family="Times,serif" font-size="14.00">UploadToAwsProvider</text>
</g>
<!-- UploadToAwsProvider&#45;&gt;UploadsModule -->
<g id="edge30" class="edge">
<title>UploadToAwsProvider&#45;&gt;UploadsModule</title>
<path fill="none" stroke="black" d="M3009.03,-112.59C3009.03,-128.06 3009.03,-159 3009.03,-159 3009.03,-159 1607.7,-159 1607.7,-159 1607.7,-159 1607.7,-159.29 1607.7,-159.29"/>
<polygon fill="black" stroke="black" points="1604.2,-151.92 1607.7,-161.92 1611.2,-151.92 1604.2,-151.92"/>
</g>
<!-- UploadsService -->
<g id="node29" class="node">
<title>UploadsService</title>
<ellipse fill="#fdb462" stroke="black" cx="2907" cy="-104" rx="72.35" ry="18"/>
<text text-anchor="middle" x="2907" y="-99.8" font-family="Times,serif" font-size="14.00">UploadsService</text>
</g>
<!-- UploadsService&#45;&gt;UploadsModule -->
<g id="edge31" class="edge">
<title>UploadsService&#45;&gt;UploadsModule</title>
<path fill="none" stroke="black" d="M2907,-122.19C2907,-137.18 2907,-156 2907,-156 2907,-156 1572.3,-156 1572.3,-156 1572.3,-156 1572.3,-156.58 1572.3,-156.58"/>
<polygon fill="black" stroke="black" points="1568.8,-151.81 1572.3,-161.81 1575.8,-151.81 1568.8,-151.81"/>
</g>
<!-- CreateGoogleUserProvider -->
<g id="node31" class="node">
<title>CreateGoogleUserProvider</title>
<ellipse fill="#fdb462" stroke="black" cx="2561" cy="-104" rx="116.29" ry="18"/>
<text text-anchor="middle" x="2561" y="-99.8" font-family="Times,serif" font-size="14.00">CreateGoogleUserProvider</text>
</g>
<!-- CreateGoogleUserProvider&#45;&gt;UsersModule -->
<g id="edge33" class="edge">
<title>CreateGoogleUserProvider&#45;&gt;UsersModule</title>
<path fill="none" stroke="black" d="M2506.86,-120.09C2506.86,-133.35 2506.86,-150 2506.86,-150 2506.86,-150 1509.75,-150 1509.75,-150 1509.75,-150 1509.75,-151.86 1509.75,-151.86"/>
<polygon fill="black" stroke="black" points="1506.25,-151.86 1509.75,-161.86 1513.25,-151.86 1506.25,-151.86"/>
</g>
<!-- CreateUserProvider -->
<g id="node32" class="node">
<title>CreateUserProvider</title>
<ellipse fill="#fdb462" stroke="black" cx="2339" cy="-104" rx="87.94" ry="18"/>
<text text-anchor="middle" x="2339" y="-99.8" font-family="Times,serif" font-size="14.00">CreateUserProvider</text>
</g>
<!-- CreateUserProvider&#45;&gt;UsersModule -->
<g id="edge34" class="edge">
<title>CreateUserProvider&#45;&gt;UsersModule</title>
<path fill="none" stroke="black" d="M2273.26,-116.21C2273.26,-128.92 2273.26,-147 2273.26,-147 2273.26,-147 1500.79,-147 1500.79,-147 1500.79,-147 1500.79,-151.96 1500.79,-151.96"/>
<polygon fill="black" stroke="black" points="1497.29,-151.96 1500.79,-161.96 1504.29,-151.96 1497.29,-151.96"/>
</g>
<!-- FindOneByGoogleIdProvider -->
<g id="node33" class="node">
<title>FindOneByGoogleIdProvider</title>
<ellipse fill="#fdb462" stroke="black" cx="2107" cy="-104" rx="125.65" ry="18"/>
<text text-anchor="middle" x="2107" y="-99.8" font-family="Times,serif" font-size="14.00">FindOneByGoogleIdProvider</text>
</g>
<!-- FindOneByGoogleIdProvider&#45;&gt;UsersModule -->
<g id="edge35" class="edge">
<title>FindOneByGoogleIdProvider&#45;&gt;UsersModule</title>
<path fill="none" stroke="black" d="M2007.95,-115.36C2007.95,-127.18 2007.95,-144 2007.95,-144 2007.95,-144 1491.83,-144 1491.83,-144 1491.83,-144 1491.83,-151.58 1491.83,-151.58"/>
<polygon fill="black" stroke="black" points="1488.33,-151.58 1491.83,-161.58 1495.33,-151.58 1488.33,-151.58"/>
</g>
<!-- FindOneUserByEmailProvider -->
<g id="node34" class="node">
<title>FindOneUserByEmailProvider</title>
<ellipse fill="#fdb462" stroke="black" cx="1833" cy="-104" rx="130.8" ry="18"/>
<text text-anchor="middle" x="1833" y="-99.8" font-family="Times,serif" font-size="14.00">FindOneUserByEmailProvider</text>
</g>
<!-- FindOneUserByEmailProvider&#45;&gt;UsersModule -->
<g id="edge36" class="edge">
<title>FindOneUserByEmailProvider&#45;&gt;UsersModule</title>
<path fill="none" stroke="black" d="M1724.67,-114.11C1724.67,-125.07 1724.67,-141 1724.67,-141 1724.67,-141 1482.88,-141 1482.88,-141 1482.88,-141 1482.88,-151.87 1482.88,-151.87"/>
<polygon fill="black" stroke="black" points="1479.38,-151.87 1482.88,-161.87 1486.38,-151.87 1479.38,-151.87"/>
</g>
<!-- UsersCreateManyProvider -->
<g id="node35" class="node">
<title>UsersCreateManyProvider</title>
<ellipse fill="#fdb462" stroke="black" cx="1570" cy="-104" rx="114" ry="18"/>
<text text-anchor="middle" x="1570" y="-99.8" font-family="Times,serif" font-size="14.00">UsersCreateManyProvider</text>
</g>
<!-- UsersCreateManyProvider&#45;&gt;UsersModule -->
<g id="edge37" class="edge">
<title>UsersCreateManyProvider&#45;&gt;UsersModule</title>
<path fill="none" stroke="black" d="M1464.96,-111.01C1464.96,-111.01 1464.96,-151.89 1464.96,-151.89"/>
<polygon fill="black" stroke="black" points="1461.46,-151.89 1464.96,-161.89 1468.46,-151.89 1461.46,-151.89"/>
</g>
<!-- UsersService -->
<g id="node36" class="node">
<title>UsersService</title>
<ellipse fill="#fdb462" stroke="black" cx="1376" cy="-104" rx="61.95" ry="18"/>
<text text-anchor="middle" x="1376" y="-99.8" font-family="Times,serif" font-size="14.00">UsersService</text>
</g>
<!-- UsersService&#45;&gt;UsersModule -->
<g id="edge38" class="edge">
<title>UsersService&#45;&gt;UsersModule</title>
<path fill="none" stroke="black" d="M1432.63,-111.57C1432.63,-111.57 1432.63,-151.88 1432.63,-151.88"/>
<polygon fill="black" stroke="black" points="1429.13,-151.88 1432.63,-161.88 1436.13,-151.88 1429.13,-151.88"/>
</g>
</g>
</svg>
