<?xml version="1.0" encoding="UTF-8" standalone="no"?>
<!DOCTYPE svg PUBLIC "-//W3C//DTD SVG 1.1//EN"
 "http://www.w3.org/Graphics/SVG/1.1/DTD/svg11.dtd">
<!-- Generated by graphviz version 2.47.0 (20210316.0004)
 -->
<!-- Title: dependencies Pages: 1 -->
<svg width="3223pt" height="363pt"
 viewBox="0.00 0.00 3223.00 363.00" xmlns="http://www.w3.org/2000/svg" xmlns:xlink="http://www.w3.org/1999/xlink">
<g id="graph0" class="graph" transform="scale(1 1) rotate(0) translate(4 359)">
<title>dependencies</title>
<polygon fill="white" stroke="transparent" points="-4,4 -4,-359 3219,-359 3219,4 -4,4"/>
<text text-anchor="start" x="1586.51" y="-42.4" font-family="Times-12" font-weight="bold" font-size="14.00">Legend</text>
<polygon fill="#ffffb3" stroke="transparent" points="1373.5,-10 1373.5,-30 1393.5,-30 1393.5,-10 1373.5,-10"/>
<text text-anchor="start" x="1397.13" y="-15.4" font-family="Times-12" font-size="14.00"> &#160;Declarations</text>
<polygon fill="#8dd3c7" stroke="transparent" points="1486.5,-10 1486.5,-30 1506.5,-30 1506.5,-10 1486.5,-10"/>
<text text-anchor="start" x="1510.23" y="-15.4" font-family="Times-12" font-size="14.00"> &#160;Module</text>
<polygon fill="#80b1d3" stroke="transparent" points="1572.5,-10 1572.5,-30 1592.5,-30 1592.5,-10 1572.5,-10"/>
<text text-anchor="start" x="1596.28" y="-15.4" font-family="Times-12" font-size="14.00"> &#160;Bootstrap</text>
<polygon fill="#fdb462" stroke="transparent" points="1669.5,-10 1669.5,-30 1689.5,-30 1689.5,-10 1669.5,-10"/>
<text text-anchor="start" x="1693.17" y="-15.4" font-family="Times-12" font-size="14.00"> &#160;Providers</text>
<polygon fill="#fb8072" stroke="transparent" points="1765.5,-10 1765.5,-30 1785.5,-30 1785.5,-10 1765.5,-10"/>
<text text-anchor="start" x="1789.23" y="-15.4" font-family="Times-12" font-size="14.00"> &#160;Exports</text>
<g id="clust1" class="cluster">
<title>cluster_AppModule</title>
<polygon fill="none" stroke="black" stroke-dasharray="1,5" points="1064,-146 1064,-347 1927,-347 1927,-146 1064,-146"/>
</g>
<g id="clust3" class="cluster">
<title>cluster_AppModule_imports</title>
<polygon fill="none" stroke="black" points="1210,-154 1210,-282 1919,-282 1919,-154 1210,-154"/>
</g>
<g id="clust6" class="cluster">
<title>cluster_AppModule_providers</title>
<polygon fill="none" stroke="black" points="1072,-230 1072,-282 1202,-282 1202,-230 1072,-230"/>
</g>
<g id="clust7" class="cluster">
<title>cluster_AuthModule</title>
<polygon fill="none" stroke="black" stroke-dasharray="1,5" points="8,-70 8,-138 1290,-138 1290,-70 8,-70"/>
</g>
<g id="clust10" class="cluster">
<title>cluster_AuthModule_exports</title>
<polygon fill="none" stroke="black" points="1044,-78 1044,-130 1282,-130 1282,-78 1044,-78"/>
</g>
<g id="clust12" class="cluster">
<title>cluster_AuthModule_providers</title>
<polygon fill="none" stroke="black" points="16,-78 16,-130 1036,-130 1036,-78 16,-78"/>
</g>
<g id="clust13" class="cluster">
<title>cluster_MailModule</title>
<polygon fill="none" stroke="black" stroke-dasharray="1,5" points="1935,-222 1935,-290 2195,-290 2195,-222 1935,-222"/>
</g>
<g id="clust16" class="cluster">
<title>cluster_MailModule_exports</title>
<polygon fill="none" stroke="black" points="2083,-230 2083,-282 2187,-282 2187,-230 2083,-230"/>
</g>
<g id="clust18" class="cluster">
<title>cluster_MailModule_providers</title>
<polygon fill="none" stroke="black" points="1943,-230 1943,-282 2075,-282 2075,-230 1943,-230"/>
</g>
<g id="clust19" class="cluster">
<title>cluster_MetaOptionsModule</title>
<polygon fill="none" stroke="black" stroke-dasharray="1,5" points="2203,-222 2203,-290 2573,-290 2573,-222 2203,-222"/>
</g>
<g id="clust22" class="cluster">
<title>cluster_MetaOptionsModule_exports</title>
<polygon fill="none" stroke="black" points="2415,-230 2415,-282 2565,-282 2565,-230 2415,-230"/>
</g>
<g id="clust24" class="cluster">
<title>cluster_MetaOptionsModule_providers</title>
<polygon fill="none" stroke="black" points="2211,-230 2211,-282 2407,-282 2407,-230 2211,-230"/>
</g>
<g id="clust25" class="cluster">
<title>cluster_PaginationModule</title>
<polygon fill="none" stroke="black" stroke-dasharray="1,5" points="2581,-222 2581,-290 2937,-290 2937,-222 2581,-222"/>
</g>
<g id="clust28" class="cluster">
<title>cluster_PaginationModule_exports</title>
<polygon fill="none" stroke="black" points="2785,-230 2785,-282 2929,-282 2929,-230 2785,-230"/>
</g>
<g id="clust30" class="cluster">
<title>cluster_PaginationModule_providers</title>
<polygon fill="none" stroke="black" points="2589,-230 2589,-282 2777,-282 2777,-230 2589,-230"/>
</g>
<g id="clust31" class="cluster">
<title>cluster_PostsModule</title>
<polygon fill="none" stroke="black" stroke-dasharray="1,5" points="713,-146 713,-214 1056,-214 1056,-146 713,-146"/>
</g>
<g id="clust36" class="cluster">
<title>cluster_PostsModule_providers</title>
<polygon fill="none" stroke="black" points="721,-154 721,-206 1048,-206 1048,-154 721,-154"/>
</g>
<g id="clust37" class="cluster">
<title>cluster_TagsModule</title>
<polygon fill="none" stroke="black" stroke-dasharray="1,5" points="2945,-222 2945,-290 3207,-290 3207,-222 2945,-222"/>
</g>
<g id="clust40" class="cluster">
<title>cluster_TagsModule_exports</title>
<polygon fill="none" stroke="black" points="3095,-230 3095,-282 3199,-282 3199,-230 3095,-230"/>
</g>
<g id="clust42" class="cluster">
<title>cluster_TagsModule_providers</title>
<polygon fill="none" stroke="black" points="2953,-230 2953,-282 3087,-282 3087,-230 2953,-230"/>
</g>
<g id="clust43" class="cluster">
<title>cluster_UsersModule</title>
<polygon fill="none" stroke="black" stroke-dasharray="1,5" points="1298,-70 1298,-138 2811,-138 2811,-70 1298,-70"/>
</g>
<g id="clust46" class="cluster">
<title>cluster_UsersModule_exports</title>
<polygon fill="none" stroke="black" points="2693,-78 2693,-130 2803,-130 2803,-78 2693,-78"/>
</g>
<g id="clust48" class="cluster">
<title>cluster_UsersModule_providers</title>
<polygon fill="none" stroke="black" points="1306,-78 1306,-130 2685,-130 2685,-78 1306,-78"/>
</g>
<!-- AuthModule -->
<g id="node1" class="node">
<title>AuthModule</title>
<polygon fill="#8dd3c7" stroke="black" points="1305.55,-198 1302.55,-202 1281.55,-202 1278.55,-198 1218.45,-198 1218.45,-162 1305.55,-162 1305.55,-198"/>
<text text-anchor="middle" x="1262" y="-175.8" font-family="Times,serif" font-size="14.00">AuthModule</text>
</g>
<!-- AppModule -->
<g id="node8" class="node">
<title>AppModule</title>
<polygon fill="#8dd3c7" stroke="black" points="1506.66,-339 1503.66,-343 1482.66,-343 1479.66,-339 1423.34,-339 1423.34,-303 1506.66,-303 1506.66,-339"/>
<text text-anchor="middle" x="1465" y="-316.8" font-family="Times,serif" font-size="14.00">AppModule</text>
</g>
<!-- AuthModule&#45;&gt;AppModule -->
<g id="edge1" class="edge">
<title>AuthModule&#45;&gt;AppModule</title>
<path fill="none" stroke="black" d="M1262,-198.21C1262,-235.06 1262,-315 1262,-315 1262,-315 1412.94,-315 1412.94,-315"/>
<polygon fill="black" stroke="black" points="1412.94,-318.5 1422.94,-315 1412.94,-311.5 1412.94,-318.5"/>
</g>
<!-- AuthService  -->
<g id="node10" class="node">
<title>AuthService </title>
<polygon fill="#fb8072" stroke="black" points="1273.98,-122 1184.02,-122 1184.02,-86 1273.98,-86 1273.98,-122"/>
<text text-anchor="middle" x="1229" y="-99.8" font-family="Times,serif" font-size="14.00">AuthService </text>
</g>
<!-- AuthModule&#45;&gt;AuthService  -->
<g id="edge9" class="edge">
<title>AuthModule&#45;&gt;AuthService </title>
<path fill="none" stroke="black" stroke-dasharray="5,2" d="M1264.49,-161.99C1264.49,-161.99 1264.49,-132.15 1264.49,-132.15"/>
<polygon fill="black" stroke="black" points="1267.99,-132.15 1264.49,-122.15 1260.99,-132.15 1267.99,-132.15"/>
</g>
<!-- HashingProvider  -->
<g id="node11" class="node">
<title>HashingProvider </title>
<polygon fill="#fb8072" stroke="black" points="1166.37,-122 1051.63,-122 1051.63,-86 1166.37,-86 1166.37,-122"/>
<text text-anchor="middle" x="1109" y="-99.8" font-family="Times,serif" font-size="14.00">HashingProvider </text>
</g>
<!-- AuthModule&#45;&gt;HashingProvider  -->
<g id="edge10" class="edge">
<title>AuthModule&#45;&gt;HashingProvider </title>
<path fill="none" stroke="black" stroke-dasharray="5,2" d="M1218.11,-171C1177.47,-171 1123.28,-171 1123.28,-171 1123.28,-171 1123.28,-132.31 1123.28,-132.31"/>
<polygon fill="black" stroke="black" points="1126.78,-132.31 1123.28,-122.31 1119.78,-132.31 1126.78,-132.31"/>
</g>
<!-- MailModule -->
<g id="node2" class="node">
<title>MailModule</title>
<polygon fill="#8dd3c7" stroke="black" points="1518.99,-198 1515.99,-202 1494.99,-202 1491.99,-198 1433.01,-198 1433.01,-162 1518.99,-162 1518.99,-198"/>
<text text-anchor="middle" x="1476" y="-175.8" font-family="Times,serif" font-size="14.00">MailModule</text>
</g>
<!-- MailModule&#45;&gt;AppModule -->
<g id="edge2" class="edge">
<title>MailModule&#45;&gt;AppModule</title>
<path fill="none" stroke="black" d="M1469.92,-198.14C1469.92,-198.14 1469.92,-292.93 1469.92,-292.93"/>
<polygon fill="black" stroke="black" points="1466.42,-292.92 1469.92,-302.93 1473.42,-292.93 1466.42,-292.92"/>
</g>
<!-- MailService  -->
<g id="node17" class="node">
<title>MailService </title>
<polygon fill="#fb8072" stroke="black" points="2178.92,-274 2091.08,-274 2091.08,-238 2178.92,-238 2178.92,-274"/>
<text text-anchor="middle" x="2135" y="-251.8" font-family="Times,serif" font-size="14.00">MailService </text>
</g>
<!-- MailModule&#45;&gt;MailService  -->
<g id="edge16" class="edge">
<title>MailModule&#45;&gt;MailService </title>
<path fill="none" stroke="black" stroke-dasharray="5,2" d="M1510.88,-198.04C1510.88,-211.29 1510.88,-227 1510.88,-227 1510.88,-227 2109.52,-227 2109.52,-227 2109.52,-227 2109.52,-228.08 2109.52,-228.08"/>
<polygon fill="black" stroke="black" points="2106.02,-227.8 2109.52,-237.8 2113.02,-227.8 2106.02,-227.8"/>
</g>
<!-- MetaOptionsModule -->
<g id="node3" class="node">
<title>MetaOptionsModule</title>
<polygon fill="#8dd3c7" stroke="black" points="1669.15,-198 1666.15,-202 1645.15,-202 1642.15,-198 1536.85,-198 1536.85,-162 1669.15,-162 1669.15,-198"/>
<text text-anchor="middle" x="1603" y="-175.8" font-family="Times,serif" font-size="14.00">MetaOptionsModule</text>
</g>
<!-- MetaOptionsModule&#45;&gt;AppModule -->
<g id="edge3" class="edge">
<title>MetaOptionsModule&#45;&gt;AppModule</title>
<path fill="none" stroke="black" d="M1636.16,-198.08C1636.16,-234.23 1636.16,-312 1636.16,-312 1636.16,-312 1516.87,-312 1516.87,-312"/>
<polygon fill="black" stroke="black" points="1516.87,-308.5 1506.87,-312 1516.87,-315.5 1516.87,-308.5"/>
</g>
<!-- MetaOptionsService  -->
<g id="node19" class="node">
<title>MetaOptionsService </title>
<polygon fill="#fb8072" stroke="black" points="2557.08,-274 2422.92,-274 2422.92,-238 2557.08,-238 2557.08,-274"/>
<text text-anchor="middle" x="2490" y="-251.8" font-family="Times,serif" font-size="14.00">MetaOptionsService </text>
</g>
<!-- MetaOptionsModule&#45;&gt;MetaOptionsService  -->
<g id="edge18" class="edge">
<title>MetaOptionsModule&#45;&gt;MetaOptionsService </title>
<path fill="none" stroke="black" stroke-dasharray="5,2" d="M1569.84,-198.42C1569.84,-207.28 1569.84,-216 1569.84,-216 1569.84,-216 2513.25,-216 2513.25,-216 2513.25,-216 2513.25,-227.87 2513.25,-227.87"/>
<polygon fill="black" stroke="black" points="2509.75,-227.87 2513.25,-237.87 2516.75,-227.87 2509.75,-227.87"/>
</g>
<!-- PaginationModule -->
<g id="node4" class="node">
<title>PaginationModule</title>
<polygon fill="#8dd3c7" stroke="black" points="1806.93,-198 1803.93,-202 1782.93,-202 1779.93,-198 1687.07,-198 1687.07,-162 1806.93,-162 1806.93,-198"/>
<text text-anchor="middle" x="1747" y="-175.8" font-family="Times,serif" font-size="14.00">PaginationModule</text>
</g>
<!-- PostsModule -->
<g id="node5" class="node">
<title>PostsModule</title>
<polygon fill="#8dd3c7" stroke="black" points="1413.61,-274 1410.61,-278 1389.61,-278 1386.61,-274 1324.39,-274 1324.39,-238 1413.61,-238 1413.61,-274"/>
<text text-anchor="middle" x="1369" y="-251.8" font-family="Times,serif" font-size="14.00">PostsModule</text>
</g>
<!-- PaginationModule&#45;&gt;PostsModule -->
<g id="edge22" class="edge">
<title>PaginationModule&#45;&gt;PostsModule</title>
<path fill="none" stroke="black" d="M1758.94,-198.04C1758.94,-219.66 1758.94,-253 1758.94,-253 1758.94,-253 1423.73,-253 1423.73,-253"/>
<polygon fill="black" stroke="black" points="1423.73,-249.5 1413.73,-253 1423.73,-256.5 1423.73,-249.5"/>
</g>
<!-- PaginationModule&#45;&gt;AppModule -->
<g id="edge4" class="edge">
<title>PaginationModule&#45;&gt;AppModule</title>
<path fill="none" stroke="black" d="M1782.83,-198.14C1782.83,-236.23 1782.83,-321 1782.83,-321 1782.83,-321 1516.88,-321 1516.88,-321"/>
<polygon fill="black" stroke="black" points="1516.88,-317.5 1506.88,-321 1516.88,-324.5 1516.88,-317.5"/>
</g>
<!-- PaginationProvider  -->
<g id="node21" class="node">
<title>PaginationProvider </title>
<polygon fill="#fb8072" stroke="black" points="2920.59,-274 2793.41,-274 2793.41,-238 2920.59,-238 2920.59,-274"/>
<text text-anchor="middle" x="2857" y="-251.8" font-family="Times,serif" font-size="14.00">PaginationProvider </text>
</g>
<!-- PaginationModule&#45;&gt;PaginationProvider  -->
<g id="edge20" class="edge">
<title>PaginationModule&#45;&gt;PaginationProvider </title>
<path fill="none" stroke="black" stroke-dasharray="5,2" d="M1711.17,-198.19C1711.17,-201.54 1711.17,-204 1711.17,-204 1711.17,-204 2857.74,-204 2857.74,-204 2857.74,-204 2857.74,-227.81 2857.74,-227.81"/>
<polygon fill="black" stroke="black" points="2854.24,-227.81 2857.74,-237.81 2861.24,-227.81 2854.24,-227.81"/>
</g>
<!-- PostsModule&#45;&gt;AppModule -->
<g id="edge5" class="edge">
<title>PostsModule&#45;&gt;AppModule</title>
<path fill="none" stroke="black" d="M1413.7,-267C1421.12,-267 1426.45,-267 1426.45,-267 1426.45,-267 1426.45,-292.72 1426.45,-292.72"/>
<polygon fill="black" stroke="black" points="1422.95,-292.72 1426.45,-302.72 1429.95,-292.72 1422.95,-292.72"/>
</g>
<!-- TagsModule -->
<g id="node6" class="node">
<title>TagsModule</title>
<polygon fill="#8dd3c7" stroke="black" points="1911.26,-198 1908.26,-202 1887.26,-202 1884.26,-198 1824.74,-198 1824.74,-162 1911.26,-162 1911.26,-198"/>
<text text-anchor="middle" x="1868" y="-175.8" font-family="Times,serif" font-size="14.00">TagsModule</text>
</g>
<!-- TagsModule&#45;&gt;PostsModule -->
<g id="edge23" class="edge">
<title>TagsModule&#45;&gt;PostsModule</title>
<path fill="none" stroke="black" d="M1853.54,-198.15C1853.54,-221.76 1853.54,-260 1853.54,-260 1853.54,-260 1423.72,-260 1423.72,-260"/>
<polygon fill="black" stroke="black" points="1423.72,-256.5 1413.72,-260 1423.72,-263.5 1423.72,-256.5"/>
</g>
<!-- TagsModule&#45;&gt;AppModule -->
<g id="edge6" class="edge">
<title>TagsModule&#45;&gt;AppModule</title>
<path fill="none" stroke="black" d="M1882.46,-198.09C1882.46,-237.99 1882.46,-330 1882.46,-330 1882.46,-330 1516.94,-330 1516.94,-330"/>
<polygon fill="black" stroke="black" points="1516.94,-326.5 1506.94,-330 1516.94,-333.5 1516.94,-326.5"/>
</g>
<!-- TagsService  -->
<g id="node25" class="node">
<title>TagsService </title>
<polygon fill="#fb8072" stroke="black" points="3191.19,-274 3102.81,-274 3102.81,-238 3191.19,-238 3191.19,-274"/>
<text text-anchor="middle" x="3147" y="-251.8" font-family="Times,serif" font-size="14.00">TagsService </text>
</g>
<!-- TagsModule&#45;&gt;TagsService  -->
<g id="edge27" class="edge">
<title>TagsModule&#45;&gt;TagsService </title>
<path fill="none" stroke="black" stroke-dasharray="5,2" d="M1911.29,-174C2134.7,-174 3147,-174 3147,-174 3147,-174 3147,-227.8 3147,-227.8"/>
<polygon fill="black" stroke="black" points="3143.5,-227.8 3147,-237.8 3150.5,-227.8 3143.5,-227.8"/>
</g>
<!-- UsersModule -->
<g id="node7" class="node">
<title>UsersModule</title>
<polygon fill="#8dd3c7" stroke="black" points="1414.92,-198 1411.92,-202 1390.92,-202 1387.92,-198 1323.08,-198 1323.08,-162 1414.92,-162 1414.92,-198"/>
<text text-anchor="middle" x="1369" y="-175.8" font-family="Times,serif" font-size="14.00">UsersModule</text>
</g>
<!-- UsersModule&#45;&gt;PostsModule -->
<g id="edge24" class="edge">
<title>UsersModule&#45;&gt;PostsModule</title>
<path fill="none" stroke="black" d="M1383.85,-198.01C1383.85,-198.01 1383.85,-227.85 1383.85,-227.85"/>
<polygon fill="black" stroke="black" points="1380.35,-227.85 1383.85,-237.85 1387.35,-227.85 1380.35,-227.85"/>
</g>
<!-- UsersModule&#45;&gt;AppModule -->
<g id="edge7" class="edge">
<title>UsersModule&#45;&gt;AppModule</title>
<path fill="none" stroke="black" d="M1414.72,-180C1423.34,-180 1429.73,-180 1429.73,-180 1429.73,-180 1429.73,-292.86 1429.73,-292.86"/>
<polygon fill="black" stroke="black" points="1426.23,-292.86 1429.73,-302.86 1433.23,-292.86 1426.23,-292.86"/>
</g>
<!-- UsersService  -->
<g id="node27" class="node">
<title>UsersService </title>
<polygon fill="#fb8072" stroke="black" points="2794.85,-122 2701.15,-122 2701.15,-86 2794.85,-86 2794.85,-122"/>
<text text-anchor="middle" x="2748" y="-99.8" font-family="Times,serif" font-size="14.00">UsersService </text>
</g>
<!-- UsersModule&#45;&gt;UsersService  -->
<g id="edge29" class="edge">
<title>UsersModule&#45;&gt;UsersService </title>
<path fill="none" stroke="black" stroke-dasharray="5,2" d="M1346.14,-161.92C1346.14,-160.15 1346.14,-159 1346.14,-159 1346.14,-159 2734.96,-159 2734.96,-159 2734.96,-159 2734.96,-132.01 2734.96,-132.01"/>
<polygon fill="black" stroke="black" points="2738.46,-132.01 2734.96,-122.01 2731.46,-132.01 2738.46,-132.01"/>
</g>
<!-- AppService -->
<g id="node9" class="node">
<title>AppService</title>
<ellipse fill="#fdb462" stroke="black" cx="1137" cy="-256" rx="56.74" ry="18"/>
<text text-anchor="middle" x="1137" y="-251.8" font-family="Times,serif" font-size="14.00">AppService</text>
</g>
<!-- AppService&#45;&gt;AppModule -->
<g id="edge8" class="edge">
<title>AppService&#45;&gt;AppModule</title>
<path fill="none" stroke="black" d="M1137,-274.28C1137,-295.32 1137,-327 1137,-327 1137,-327 1413.13,-327 1413.13,-327"/>
<polygon fill="black" stroke="black" points="1413.13,-330.5 1423.13,-327 1413.13,-323.5 1413.13,-330.5"/>
</g>
<!-- AuthService -->
<g id="node12" class="node">
<title>AuthService</title>
<ellipse fill="#fdb462" stroke="black" cx="317" cy="-104" rx="59.11" ry="18"/>
<text text-anchor="middle" x="317" y="-99.8" font-family="Times,serif" font-size="14.00">AuthService</text>
</g>
<!-- AuthService&#45;&gt;AuthModule -->
<g id="edge11" class="edge">
<title>AuthService&#45;&gt;AuthModule</title>
<path fill="none" stroke="black" d="M317,-122.2C317,-128.03 317,-133 317,-133 317,-133 1236.73,-133 1236.73,-133 1236.73,-133 1236.73,-151.96 1236.73,-151.96"/>
<polygon fill="black" stroke="black" points="1233.23,-151.96 1236.73,-161.96 1240.23,-151.96 1233.23,-151.96"/>
</g>
<!-- GenerateTokensProvider -->
<g id="node13" class="node">
<title>GenerateTokensProvider</title>
<ellipse fill="#fdb462" stroke="black" cx="132" cy="-104" rx="107.63" ry="18"/>
<text text-anchor="middle" x="132" y="-99.8" font-family="Times,serif" font-size="14.00">GenerateTokensProvider</text>
</g>
<!-- GenerateTokensProvider&#45;&gt;AuthModule -->
<g id="edge12" class="edge">
<title>GenerateTokensProvider&#45;&gt;AuthModule</title>
<path fill="none" stroke="black" d="M132,-122.04C132,-129.75 132,-137 132,-137 132,-137 1227.48,-137 1227.48,-137 1227.48,-137 1227.48,-151.51 1227.48,-151.51"/>
<polygon fill="black" stroke="black" points="1223.98,-151.51 1227.48,-161.51 1230.98,-151.51 1223.98,-151.51"/>
</g>
<!-- GoogleAuthenticationService -->
<g id="node14" class="node">
<title>GoogleAuthenticationService</title>
<ellipse fill="#fdb462" stroke="black" cx="902" cy="-104" rx="125.62" ry="18"/>
<text text-anchor="middle" x="902" y="-99.8" font-family="Times,serif" font-size="14.00">GoogleAuthenticationService</text>
</g>
<!-- GoogleAuthenticationService&#45;&gt;AuthModule -->
<g id="edge13" class="edge">
<title>GoogleAuthenticationService&#45;&gt;AuthModule</title>
<path fill="none" stroke="black" d="M1028.03,-104C1038.96,-104 1045.97,-104 1045.97,-104 1045.97,-104 1045.97,-180 1045.97,-180 1045.97,-180 1208.28,-180 1208.28,-180"/>
<polygon fill="black" stroke="black" points="1208.28,-183.5 1218.28,-180 1208.28,-176.5 1208.28,-183.5"/>
</g>
<!-- RefreshTokensProvider -->
<g id="node15" class="node">
<title>RefreshTokensProvider</title>
<ellipse fill="#fdb462" stroke="black" cx="655" cy="-104" rx="102.99" ry="18"/>
<text text-anchor="middle" x="655" y="-99.8" font-family="Times,serif" font-size="14.00">RefreshTokensProvider</text>
</g>
<!-- RefreshTokensProvider&#45;&gt;AuthModule -->
<g id="edge14" class="edge">
<title>RefreshTokensProvider&#45;&gt;AuthModule</title>
<path fill="none" stroke="black" d="M743.18,-113.46C743.18,-119.42 743.18,-126 743.18,-126 743.18,-126 1255.23,-126 1255.23,-126 1255.23,-126 1255.23,-151.72 1255.23,-151.72"/>
<polygon fill="black" stroke="black" points="1251.73,-151.72 1255.23,-161.72 1258.73,-151.72 1251.73,-151.72"/>
</g>
<!-- SignInProvider -->
<g id="node16" class="node">
<title>SignInProvider</title>
<ellipse fill="#fdb462" stroke="black" cx="464" cy="-104" rx="70.08" ry="18"/>
<text text-anchor="middle" x="464" y="-99.8" font-family="Times,serif" font-size="14.00">SignInProvider</text>
</g>
<!-- SignInProvider&#45;&gt;AuthModule -->
<g id="edge15" class="edge">
<title>SignInProvider&#45;&gt;AuthModule</title>
<path fill="none" stroke="black" d="M464,-122.06C464,-126.49 464,-130 464,-130 464,-130 1245.98,-130 1245.98,-130 1245.98,-130 1245.98,-151.95 1245.98,-151.95"/>
<polygon fill="black" stroke="black" points="1242.48,-151.95 1245.98,-161.95 1249.48,-151.95 1242.48,-151.95"/>
</g>
<!-- MailService -->
<g id="node18" class="node">
<title>MailService</title>
<ellipse fill="#fdb462" stroke="black" cx="2009" cy="-256" rx="58.46" ry="18"/>
<text text-anchor="middle" x="2009" y="-251.8" font-family="Times,serif" font-size="14.00">MailService</text>
</g>
<!-- MailService&#45;&gt;MailModule -->
<g id="edge17" class="edge">
<title>MailService&#45;&gt;MailModule</title>
<path fill="none" stroke="black" d="M1960.28,-246C1835.63,-246 1514.94,-246 1514.94,-246 1514.94,-246 1514.94,-208.03 1514.94,-208.03"/>
<polygon fill="black" stroke="black" points="1518.44,-208.03 1514.94,-198.03 1511.44,-208.03 1518.44,-208.03"/>
</g>
<!-- MetaOptionsService -->
<g id="node20" class="node">
<title>MetaOptionsService</title>
<ellipse fill="#fdb462" stroke="black" cx="2309" cy="-256" rx="90.33" ry="18"/>
<text text-anchor="middle" x="2309" y="-251.8" font-family="Times,serif" font-size="14.00">MetaOptionsService</text>
</g>
<!-- MetaOptionsService&#45;&gt;MetaOptionsModule -->
<g id="edge19" class="edge">
<title>MetaOptionsService&#45;&gt;MetaOptionsModule</title>
<path fill="none" stroke="black" d="M2309,-237.68C2309,-229.21 2309,-221 2309,-221 2309,-221 1603,-221 1603,-221 1603,-221 1603,-208.1 1603,-208.1"/>
<polygon fill="black" stroke="black" points="1606.5,-208.1 1603,-198.1 1599.5,-208.1 1606.5,-208.1"/>
</g>
<!-- PaginationProvider -->
<g id="node22" class="node">
<title>PaginationProvider</title>
<ellipse fill="#fdb462" stroke="black" cx="2683" cy="-256" rx="85.69" ry="18"/>
<text text-anchor="middle" x="2683" y="-251.8" font-family="Times,serif" font-size="14.00">PaginationProvider</text>
</g>
<!-- PaginationProvider&#45;&gt;PaginationModule -->
<g id="edge21" class="edge">
<title>PaginationProvider&#45;&gt;PaginationModule</title>
<path fill="none" stroke="black" d="M2637.11,-240.68C2637.11,-227.3 2637.11,-210 2637.11,-210 2637.11,-210 1735.06,-210 1735.06,-210 1735.06,-210 1735.06,-208.14 1735.06,-208.14"/>
<polygon fill="black" stroke="black" points="1738.56,-208.14 1735.06,-198.14 1731.56,-208.14 1738.56,-208.14"/>
</g>
<!-- CreatePostProvider -->
<g id="node23" class="node">
<title>CreatePostProvider</title>
<ellipse fill="#fdb462" stroke="black" cx="954" cy="-180" rx="86.25" ry="18"/>
<text text-anchor="middle" x="954" y="-175.8" font-family="Times,serif" font-size="14.00">CreatePostProvider</text>
</g>
<!-- CreatePostProvider&#45;&gt;PostsModule -->
<g id="edge25" class="edge">
<title>CreatePostProvider&#45;&gt;PostsModule</title>
<path fill="none" stroke="black" d="M1028.9,-189C1103.16,-189 1205.92,-189 1205.92,-189 1205.92,-189 1205.92,-256 1205.92,-256 1205.92,-256 1314.44,-256 1314.44,-256"/>
<polygon fill="black" stroke="black" points="1314.44,-259.5 1324.44,-256 1314.44,-252.5 1314.44,-259.5"/>
</g>
<!-- PostsService -->
<g id="node24" class="node">
<title>PostsService</title>
<ellipse fill="#fdb462" stroke="black" cx="789" cy="-180" rx="60.27" ry="18"/>
<text text-anchor="middle" x="789" y="-175.8" font-family="Times,serif" font-size="14.00">PostsService</text>
</g>
<!-- PostsService&#45;&gt;PostsModule -->
<g id="edge26" class="edge">
<title>PostsService&#45;&gt;PostsModule</title>
<path fill="none" stroke="black" d="M789,-198.24C789,-213.57 789,-233 789,-233 789,-233 1354.15,-233 1354.15,-233 1354.15,-233 1354.15,-233.49 1354.15,-233.49"/>
<polygon fill="black" stroke="black" points="1350.65,-227.88 1354.15,-237.88 1357.65,-227.88 1350.65,-227.88"/>
</g>
<!-- TagsService -->
<g id="node26" class="node">
<title>TagsService</title>
<ellipse fill="#fdb462" stroke="black" cx="3020" cy="-256" rx="58.53" ry="18"/>
<text text-anchor="middle" x="3020" y="-251.8" font-family="Times,serif" font-size="14.00">TagsService</text>
</g>
<!-- TagsService&#45;&gt;TagsModule -->
<g id="edge28" class="edge">
<title>TagsService&#45;&gt;TagsModule</title>
<path fill="none" stroke="black" d="M3020,-237.97C3020,-217.23 3020,-186 3020,-186 3020,-186 1921.4,-186 1921.4,-186"/>
<polygon fill="black" stroke="black" points="1921.4,-182.5 1911.4,-186 1921.4,-189.5 1921.4,-182.5"/>
</g>
<!-- CreateGoogleUserProvider -->
<g id="node28" class="node">
<title>CreateGoogleUserProvider</title>
<ellipse fill="#fdb462" stroke="black" cx="1624" cy="-104" rx="116.29" ry="18"/>
<text text-anchor="middle" x="1624" y="-99.8" font-family="Times,serif" font-size="14.00">CreateGoogleUserProvider</text>
</g>
<!-- CreateGoogleUserProvider&#45;&gt;UsersModule -->
<g id="edge30" class="edge">
<title>CreateGoogleUserProvider&#45;&gt;UsersModule</title>
<path fill="none" stroke="black" d="M1513.43,-109.78C1513.43,-120.19 1513.43,-141 1513.43,-141 1513.43,-141 1357.57,-141 1357.57,-141 1357.57,-141 1357.57,-151.87 1357.57,-151.87"/>
<polygon fill="black" stroke="black" points="1354.07,-151.87 1357.57,-161.87 1361.07,-151.87 1354.07,-151.87"/>
</g>
<!-- CreateUserProvider -->
<g id="node29" class="node">
<title>CreateUserProvider</title>
<ellipse fill="#fdb462" stroke="black" cx="1402" cy="-104" rx="87.94" ry="18"/>
<text text-anchor="middle" x="1402" y="-99.8" font-family="Times,serif" font-size="14.00">CreateUserProvider</text>
</g>
<!-- CreateUserProvider&#45;&gt;UsersModule -->
<g id="edge31" class="edge">
<title>CreateUserProvider&#45;&gt;UsersModule</title>
<path fill="none" stroke="black" d="M1334.72,-115.88C1334.72,-115.88 1334.72,-151.99 1334.72,-151.99"/>
<polygon fill="black" stroke="black" points="1331.22,-151.99 1334.72,-161.99 1338.22,-151.99 1331.22,-151.99"/>
</g>
<!-- FindOneByGoogleIdProvider -->
<g id="node30" class="node">
<title>FindOneByGoogleIdProvider</title>
<ellipse fill="#fdb462" stroke="black" cx="2551" cy="-104" rx="125.65" ry="18"/>
<text text-anchor="middle" x="2551" y="-99.8" font-family="Times,serif" font-size="14.00">FindOneByGoogleIdProvider</text>
</g>
<!-- FindOneByGoogleIdProvider&#45;&gt;UsersModule -->
<g id="edge32" class="edge">
<title>FindOneByGoogleIdProvider&#45;&gt;UsersModule</title>
<path fill="none" stroke="black" d="M2469.21,-117.94C2469.21,-133.04 2469.21,-155 2469.21,-155 2469.21,-155 1403.28,-155 1403.28,-155 1403.28,-155 1403.28,-155.68 1403.28,-155.68"/>
<polygon fill="black" stroke="black" points="1399.78,-151.83 1403.28,-161.83 1406.78,-151.83 1399.78,-151.83"/>
</g>
<!-- FindOneUserByEmailProvider -->
<g id="node31" class="node">
<title>FindOneUserByEmailProvider</title>
<ellipse fill="#fdb462" stroke="black" cx="2277" cy="-104" rx="130.8" ry="18"/>
<text text-anchor="middle" x="2277" y="-99.8" font-family="Times,serif" font-size="14.00">FindOneUserByEmailProvider</text>
</g>
<!-- FindOneUserByEmailProvider&#45;&gt;UsersModule -->
<g id="edge33" class="edge">
<title>FindOneUserByEmailProvider&#45;&gt;UsersModule</title>
<path fill="none" stroke="black" d="M2162.66,-112.8C2162.66,-126.66 2162.66,-152 2162.66,-152 2162.66,-152 1391.86,-152 1391.86,-152 1391.86,-152 1391.86,-152.98 1391.86,-152.98"/>
<polygon fill="black" stroke="black" points="1388.36,-151.79 1391.86,-161.79 1395.36,-151.79 1388.36,-151.79"/>
</g>
<!-- UsersCreateManyProvider -->
<g id="node32" class="node">
<title>UsersCreateManyProvider</title>
<ellipse fill="#fdb462" stroke="black" cx="2014" cy="-104" rx="114" ry="18"/>
<text text-anchor="middle" x="2014" y="-99.8" font-family="Times,serif" font-size="14.00">UsersCreateManyProvider</text>
</g>
<!-- UsersCreateManyProvider&#45;&gt;UsersModule -->
<g id="edge34" class="edge">
<title>UsersCreateManyProvider&#45;&gt;UsersModule</title>
<path fill="none" stroke="black" d="M1905.69,-109.75C1905.69,-121.68 1905.69,-148 1905.69,-148 1905.69,-148 1380.43,-148 1380.43,-148 1380.43,-148 1380.43,-151.76 1380.43,-151.76"/>
<polygon fill="black" stroke="black" points="1376.93,-151.76 1380.43,-161.76 1383.93,-151.76 1376.93,-151.76"/>
</g>
<!-- UsersService -->
<g id="node33" class="node">
<title>UsersService</title>
<ellipse fill="#fdb462" stroke="black" cx="1820" cy="-104" rx="61.95" ry="18"/>
<text text-anchor="middle" x="1820" y="-99.8" font-family="Times,serif" font-size="14.00">UsersService</text>
</g>
<!-- UsersService&#45;&gt;UsersModule -->
<g id="edge35" class="edge">
<title>UsersService&#45;&gt;UsersModule</title>
<path fill="none" stroke="black" d="M1782.37,-118.44C1782.37,-129.9 1782.37,-144 1782.37,-144 1782.37,-144 1369,-144 1369,-144 1369,-144 1369,-151.58 1369,-151.58"/>
<polygon fill="black" stroke="black" points="1365.5,-151.58 1369,-161.58 1372.5,-151.58 1365.5,-151.58"/>
</g>
</g>
</svg>
